<svg width="144" height="138" viewBox="0 0 144 138" fill="none" xmlns="http://www.w3.org/2000/svg">
<g filter="url(#filter0_d)">
<path fill-rule="evenodd" clip-rule="evenodd" d="M21.473 47.0825C22.2182 47.0825 22.5174 47.2887 22.5174 47.9058V49.435C22.5174 50.1703 22.2189 50.4345 21.8013 50.4345C20.9958 50.4345 20.6973 50.6994 20.6973 51.2872V55.0515C20.6973 55.6687 17.8037 57.2566 13.8657 57.2566C7.89905 57.2566 4.08086 53.4636 4.08086 47.6996C4.08086 41.7302 7.80972 36.6435 14.3726 36.6435C16.5508 36.6435 18.7283 37.1138 19.4444 38.0252C19.7429 38.4369 20.5484 40.9949 20.5484 41.4066C20.5484 42.1125 20.2797 42.3473 18.5198 42.3473C15.388 42.3473 15.8347 40.3778 13.5381 40.3778C11.0919 40.3778 9.21221 43.23 9.21221 47.5528C9.21221 51.7282 11.2706 53.7278 13.9557 53.7278C15.0002 53.7278 15.7453 53.6104 16.2828 53.3455V51.2872C16.2828 50.6994 15.9843 50.4345 14.9108 50.4345C13.8664 50.4345 13.5679 50.1696 13.5679 49.435V47.9058C13.5679 47.2887 13.8664 47.0825 14.6123 47.0825H21.473ZM30.3049 42.9022C25.3529 42.9022 22.906 45.9305 22.906 49.9297C22.906 53.9289 25.3522 56.9573 30.3049 56.9573C35.2568 56.9573 37.703 53.9289 37.703 49.9297C37.703 45.9313 35.2568 42.9022 30.3049 42.9022ZM30.7225 53.7235C28.8138 53.7235 27.4411 51.4003 27.4411 48.8422C27.4411 46.8133 28.455 46.1375 29.8873 46.1375C31.796 46.1375 33.1687 48.4607 33.1687 51.0187C33.1687 53.0476 32.1541 53.7235 30.7225 53.7235ZM52.5531 53.8144C51.8973 53.8144 51.6583 53.5495 51.6583 53.1085V40.6992C51.6583 39.523 53.0005 39.4642 53.0005 38.4347V36.6707C53.0005 36.2884 52.7623 36.0822 52.434 36.0822C52.1355 36.0822 51.8079 36.1416 51.3896 36.3177L46.4674 38.5235C45.9009 38.7884 45.6917 39.0526 45.6917 39.4936V40.788C45.6917 41.4051 45.9902 41.6407 46.5269 41.6407C47.2133 41.6407 47.6012 41.8469 47.6012 42.3466V43.2873C47.2729 43.1692 46.3178 43.0224 45.3038 43.0224C40.978 43.0224 38.3233 46.0215 38.3233 50.2562C38.3233 54.7852 40.6802 57.0783 44.0212 57.0783C45.8108 57.0783 47.1232 56.0789 47.5416 55.373H47.6019V56.1082C47.6019 56.608 47.8401 56.7848 48.4066 56.7848H52.5531C53.1204 56.7848 53.3586 56.608 53.3586 56.1082V54.6084C53.3586 54.0492 53.1501 53.8144 52.5531 53.8144ZM47.6019 52.0496C46.9751 52.7262 46.1696 52.9904 45.1855 52.9904C43.515 52.9904 42.2621 51.9315 42.2621 49.4615C42.2621 47.4913 43.5752 46.4918 45.0068 46.4918C46.588 46.4918 47.6026 47.4619 47.6026 48.6389V52.0496H47.6019ZM55.3167 56.9044C54.7502 56.9044 54.5112 56.7275 54.5112 56.2278V54.7279C54.5112 54.1695 54.7204 53.934 55.3167 53.934C56.1222 53.934 56.3611 53.6691 56.3611 53.228V48.5523L55.6741 48.7878C55.4053 48.8465 55.1373 48.906 54.9579 48.906C54.6601 48.906 54.4807 48.7291 54.4807 48.3769V46.2298C54.4807 45.9649 54.6006 45.8181 54.809 45.7007L56.3604 45.0535V42.348C56.3604 37.9959 57.9714 36.2025 61.969 36.2025C65.3107 36.2025 66.5033 37.32 66.5033 39.5845V40.614C66.5033 41.5254 66.2048 41.761 64.5946 41.761C63.5501 41.761 63.0432 41.2025 62.5958 40.614C62.1781 40.0255 61.8796 39.4378 61.2535 39.4378C60.7168 39.4378 60.4183 39.7614 60.4183 40.8489V43.7598L61.8803 43.2895C62.2086 43.2014 62.4766 43.1427 62.7156 43.1427C63.0134 43.1427 63.163 43.2895 63.163 43.5837V45.7308C63.163 46.0838 63.0134 46.2892 62.6858 46.4074L60.4183 47.26V53.2295C60.4183 53.6705 60.687 53.9354 61.9399 53.9354C62.5369 53.9354 62.7752 54.1709 62.7752 54.7294V56.2292C62.7752 56.729 62.5362 56.9058 61.9697 56.9058H55.3167V56.9044Z" fill="#E8EDDF"/>
<path fill-rule="evenodd" clip-rule="evenodd" d="M75.9497 53.5445C75.3824 53.5445 75.1144 53.3683 75.1144 52.8686V46.8111C75.1144 44.1643 73.2943 42.7826 69.8342 42.7826C68.4912 42.7826 64.3447 43.253 64.3447 44.3999V46.8698C64.3447 47.2228 64.5539 47.3989 64.8517 47.3989H66.3435C67.7751 47.3989 68.1034 46.0165 69.5952 46.0165C70.6396 46.0165 71.0565 46.3401 71.0565 47.046V48.0161H70.9374C68.0736 48.0161 63.2705 49.1923 63.2705 52.8679C63.2705 55.3672 65.0609 56.8377 68.0736 56.8377C69.2669 56.8377 70.5496 56.4554 71.355 55.6908C71.9223 56.308 72.5491 56.8377 73.3829 56.8377C73.8906 56.8377 76.7254 56.6022 76.7254 55.4259V54.1322C76.7261 53.6919 76.4864 53.5445 75.9497 53.5445ZM71.0573 52.7512C70.8183 53.0748 70.1624 53.6039 69.1783 53.6039C68.2537 53.6039 67.8056 53.2216 67.8056 52.4276C67.8056 50.6929 70.1922 50.3693 71.0573 50.3693V52.7512ZM78.2368 48.2566L77.7887 48.4041C77.621 48.4818 77.4379 48.5219 77.2527 48.5215C76.9847 48.5215 76.8343 48.3747 76.8343 48.0511V45.9048C76.8343 45.4638 76.9236 45.3463 77.1335 45.2876L78.2375 44.8166V41.1997C78.2375 40.8761 78.4162 40.7293 78.7438 40.5818L81.0418 39.6704C81.3098 39.553 81.5778 39.465 81.816 39.465C82.0543 39.465 82.294 39.6125 82.294 39.9647V43.5229L83.2483 43.1993C83.5759 43.0819 83.8737 43.0224 84.0538 43.0224C84.2325 43.0224 84.4409 43.1398 84.4409 43.5515V45.7279C84.4409 46.0515 84.3218 46.2284 83.963 46.3751L82.2932 47.051V52.3152C82.2932 53.1972 82.5612 53.6089 83.2476 53.6089C83.4858 53.6089 83.7836 53.5795 83.9921 53.5795C84.5891 53.5795 84.9479 55.0501 84.9479 55.4317C84.9479 56.2256 83.3958 57.0783 81.3672 57.0783C79.3088 57.0783 78.2354 55.9314 78.2354 53.344V48.2566H78.2368ZM87.4587 42.4654C87.4587 41.9657 87.0716 41.7603 86.3845 41.7603C85.8471 41.7603 85.5493 41.5247 85.5493 40.9076V39.6139C85.5493 39.1729 85.7577 38.908 86.325 38.6438L91.2472 36.438C91.6641 36.2612 91.9931 36.2025 92.2015 36.2025C92.5291 36.2025 92.7673 36.4087 92.7673 36.7903V38.5543C92.7673 39.5838 91.5144 39.6425 91.5144 40.8188V44.5237C92.5284 43.8178 93.811 43.142 95.4525 43.142C97.8979 43.142 99.3905 44.6419 99.3905 47.2586V53.228C99.3905 53.669 99.6287 53.9339 100.494 53.9339C101.031 53.9339 101.24 54.1695 101.24 54.7279V56.2278C101.24 56.7275 101.001 56.9043 100.435 56.9043H94.8554C94.2897 56.9043 94.05 56.7275 94.05 56.2278V54.7279C94.05 54.1695 94.2599 53.9339 94.7959 53.9339C95.0951 53.9339 95.3334 53.669 95.3334 53.228V48.6117C95.3334 47.671 94.7363 47.1412 93.7515 47.1412C92.8269 47.1412 92.0504 47.5822 91.5144 47.9051V53.228C91.5144 53.669 91.7527 53.9339 92.2901 53.9339C92.8261 53.9339 93.036 54.1695 93.036 54.7279V56.2278C93.036 56.7275 92.7964 56.9043 92.2306 56.9043H86.5617C85.9959 56.9043 85.7563 56.7275 85.7563 56.2278V54.7279C85.7563 54.1695 85.9662 53.9339 86.5022 53.9339C87.2183 53.9339 87.4566 53.669 87.4566 53.228V42.4654H87.4587ZM112.777 52.4935C112.182 52.4935 110.987 53.7285 108.75 53.7285C107.288 53.7285 106.721 52.9932 106.334 52.5228L112.031 49.9648C113.643 49.2589 114.119 48.6711 114.119 47.2887C114.119 46.2592 112.747 43.1427 108.422 43.1427C103.47 43.1427 101.024 46.1711 101.024 50.1703C101.024 54.1695 103.469 57.1979 108.422 57.1979C111.375 57.1979 114.27 55.4925 114.27 54.5511C114.27 54.0521 113.464 52.4935 112.777 52.4935ZM107.587 46.3773C108.303 46.3773 108.989 46.7009 108.989 47.4061C108.989 47.8177 108.274 48.3175 107.319 48.7298L104.932 49.7293C104.753 48.2 105.917 46.3773 107.587 46.3773ZM114.688 46.1417C114.688 45.7888 114.867 45.6127 115.106 45.4953L119.134 43.4069C119.491 43.2308 119.759 43.1427 119.969 43.1427C120.267 43.1427 120.475 43.2601 120.475 43.6718V45.1717L120.952 44.7894C121.906 44.0247 122.593 43.437 123.966 43.437C125.278 43.437 125.695 43.7606 125.695 44.7306V47.4061C125.695 48.3175 125.308 48.553 124.323 48.553C122.592 48.553 122.384 47.9058 121.4 47.9058C120.803 47.9058 120.475 48.2294 120.475 48.6998V53.228C120.475 53.669 120.743 53.9339 121.938 53.9339C122.534 53.9339 122.772 54.1695 122.772 54.7279V56.2278C122.772 56.7275 122.534 56.9043 121.968 56.9043H115.583C115.017 56.9043 114.777 56.7275 114.777 56.2278V54.7279C114.777 54.1695 114.987 53.9339 115.523 53.9339C116.18 53.9339 116.418 53.669 116.418 53.228V48.9933C116.418 48.611 116.21 48.3762 115.702 48.3762C114.928 48.3762 114.688 48.17 114.688 47.6409V46.1417ZM128.508 53.8459C128.508 52.5815 128.776 52.3166 129.701 52.3166H130.358C132.506 52.3166 132.327 54.2282 134.653 54.2282C135.28 54.2282 135.757 53.9926 135.757 53.2581C135.757 51.3759 128.688 52.1405 128.688 47.6123C128.688 44.4951 131.492 43.1427 134.327 43.1427C137.429 43.1427 139.159 44.0541 139.159 45.1717V47.2593C139.159 47.759 138.979 47.9359 138.473 47.9359H137.25C136.355 47.9359 135.966 47.4949 135.519 47.0245C135.041 46.5835 134.535 46.1131 133.848 46.1131C133.193 46.1131 132.894 46.4954 132.894 46.9364C132.894 48.936 139.963 47.9065 139.963 52.7877C139.963 55.9636 137.607 57.1986 134.086 57.1986C131.909 57.1986 128.508 56.6401 128.508 55.1696V53.8459ZM48.8446 71.1249C54.334 71.1249 56.0343 69.0372 56.0343 65.5377C56.0343 62.0089 54.334 59.9213 48.8446 59.9213H40.0439C39.298 59.9213 38.9995 60.1274 38.9995 60.7446V62.2731C38.9995 63.0083 39.298 63.2732 40.3417 63.2732C41.1472 63.2732 41.4457 63.5374 41.4457 64.1259V75.623C41.4457 76.2108 41.1472 76.4757 40.3417 76.4757C39.2973 76.4757 38.9995 76.7406 38.9995 77.4752V79.0044C38.9995 79.6215 39.298 79.8277 40.0439 79.8277H47.8895C48.6354 79.8277 48.9339 79.6215 48.9339 79.0044V77.4752C48.9339 76.7406 48.6354 76.4757 47.5917 76.4757C46.3091 76.4757 46.0106 76.2108 46.0106 75.623V71.1241H48.8446V71.1249ZM46.0106 63.3914H48.2178C50.4853 63.3914 51.2901 64.0973 51.2901 65.5377C51.2901 66.9789 50.4846 67.6547 48.2178 67.6547H46.0106V63.3914ZM56.595 79.8291C56.0285 79.8291 55.7896 79.6523 55.7896 79.1526V77.6527C55.7896 77.0943 56.0285 76.8595 56.6248 76.8595C57.1318 76.8595 57.4005 76.5946 57.4005 76.2123V72.3312C57.4005 71.8315 57.0127 71.6253 56.4461 71.6253C55.969 71.6253 55.6704 71.3905 55.6704 70.7733V69.4789C55.6704 69.0379 55.8796 68.7737 56.327 68.5088L61.2492 66.3038C61.6668 66.1269 61.9356 66.0682 62.0845 66.0682C62.4128 66.0682 62.651 66.2744 62.651 66.6567V68.4208C62.651 69.4503 61.4577 69.509 61.4577 70.6846V76.1543C61.4577 76.5953 61.6959 76.8602 62.3227 76.8602C62.9197 76.8602 63.1282 77.095 63.1282 77.6534V79.1533C63.1282 79.653 62.8899 79.8298 62.3227 79.8298H56.595V79.8291ZM56.6546 62.2444C56.6546 61.8034 56.8042 61.6266 57.1615 61.4798L60.3239 60.1274C60.5926 60.0093 60.8614 59.9213 61.0996 59.9213C61.3088 59.9213 61.4577 60.0387 61.4577 60.3623V64.1846C61.4577 64.4789 61.308 64.6256 60.8309 64.8318L57.7884 66.1255C57.4601 66.2723 57.2516 66.361 57.0722 66.361C56.8333 66.361 56.6546 66.2429 56.6546 65.9494V62.2444ZM70.9309 76.5938C72.0944 76.5938 73.1984 75.2701 73.8848 75.2701H75.3759C75.9431 75.2701 76.1814 75.4469 76.1814 75.9466V79.1519C76.1814 79.6516 75.9431 79.8284 75.3759 79.8284H65.1132C64.5466 79.8284 64.3077 79.6516 64.3077 79.1519V76.9761C64.3077 76.4471 64.4871 76.1822 64.7253 75.9466L70.6919 69.5949H69.4383C68.9909 69.5949 68.5435 69.8892 68.1259 70.1533C67.7083 70.4476 67.2906 70.7118 66.8432 70.7118H65.5308C64.9643 70.7118 64.7253 70.5356 64.7253 70.0359V67.0369C64.7253 66.5372 64.9643 66.361 65.5308 66.361H75.1667C75.7325 66.361 75.9722 66.5372 75.9722 67.0369V69.2713C75.9722 69.6536 75.8233 69.9479 75.4943 70.2715L69.3795 76.5931H70.9309V76.5938ZM83.464 76.5938C84.6276 76.5938 85.7323 75.2701 86.4172 75.2701H87.9098C88.4756 75.2701 88.7138 75.4469 88.7138 75.9466V79.1519C88.7138 79.6516 88.4756 79.8284 87.9098 79.8284H77.6478C77.0805 79.8284 76.8423 79.6516 76.8423 79.1519V76.9761C76.8423 76.4471 77.021 76.1822 77.2592 75.9466L83.2258 69.5949H81.9729C81.5248 69.5949 81.0781 69.8892 80.6605 70.1533C80.2421 70.4476 79.8252 70.7118 79.3764 70.7118H78.0639C77.4967 70.7118 77.2585 70.5356 77.2585 70.0359V67.0369C77.2585 66.5372 77.4967 66.361 78.0639 66.361H87.6991C88.2664 66.361 88.5046 66.5372 88.5046 67.0369V69.2713C88.5046 69.6536 88.3557 69.9479 88.0282 70.2715L81.9127 76.5931H83.464V76.5938ZM102.601 76.8294C102.035 76.8294 101.766 76.6525 101.766 76.1528V70.0953C101.766 67.4493 99.9469 66.0668 96.4853 66.0668C95.1431 66.0668 90.9966 66.5372 90.9966 67.6841V70.154C90.9966 70.507 91.205 70.6831 91.5028 70.6831H92.9954C94.4269 70.6831 94.7559 69.3014 96.247 69.3014C97.2915 69.3014 97.7084 69.6243 97.7084 70.3309V71.301H97.5893C94.7254 71.301 89.9231 72.4772 89.9231 76.1521C89.9231 78.6514 91.712 80.1219 94.7247 80.1219C95.9195 80.1219 97.2014 79.7404 98.0076 78.975C98.5734 79.5922 99.2009 80.1219 100.036 80.1219C100.542 80.1219 103.377 79.8871 103.377 78.7108V77.4164C103.376 76.9769 103.138 76.8294 102.601 76.8294ZM97.7076 76.0354C97.4694 76.359 96.8143 76.8881 95.8294 76.8881C94.9048 76.8881 94.456 76.5058 94.456 75.7118C94.456 73.9764 96.8433 73.6528 97.7076 73.6528V76.0354ZM108.367 74.4733C106.614 74.4733 105.359 75.7963 105.359 77.5074C105.359 79.227 106.614 80.5322 108.367 80.5322C110.104 80.5322 111.375 79.2535 111.375 77.5074C111.375 75.7963 110.129 74.4733 108.367 74.4733ZM108.367 80.0146C107.033 80.0146 106.104 78.8991 106.104 77.5081C106.104 76.1242 107.033 74.9923 108.367 74.9923C109.717 74.9923 110.629 76.1077 110.629 77.5081C110.629 78.8991 109.699 80.0146 108.367 80.0146Z" fill="#E8EDDF"/>
<path fill-rule="evenodd" clip-rule="evenodd" d="M109.472 78.2333L108.981 77.5245C109.401 77.4035 109.638 77.0234 109.638 76.669C109.638 76.0819 109.227 75.8135 108.692 75.8135H106.92V76.0304C107.245 76.0468 107.289 76.0819 107.289 76.3146V78.5447C107.289 78.7781 107.245 78.8125 106.92 78.8297V79.0459H108.463V78.8297C108.139 78.8125 108.095 78.7781 108.095 78.5447V77.6369H108.296C108.638 78.1896 108.918 79.0459 109.174 79.0459H109.988V78.9335C109.822 78.7352 109.647 78.4846 109.472 78.2333ZM108.35 77.4214H108.095V76.0304H108.35C108.621 76.0304 108.761 76.2029 108.761 76.7306C108.761 77.2475 108.621 77.4214 108.35 77.4214ZM126.472 41.7409C126.472 41.7409 125.356 42.8613 126.736 43.361C126.736 43.361 128.096 43.8214 129.394 41.9607C129.394 41.9607 132.135 38.4805 129.983 36.3993C129.983 36.3993 128.239 34.719 126.371 36.6592C126.371 36.6592 125.235 38.1598 126.371 39.4793C126.371 39.4807 127.569 40.5209 126.472 41.7409ZM119.797 23.0079C108.4 17.1788 96.1162 13.5261 83.2868 12.1501C73.0473 11.0518 62.4454 11.3955 51.7759 13.1703C33.6103 16.1936 21.6233 22.2726 21.1221 22.5296L18.0252 24.119L27.1933 39.9453L34.7034 39.8952L27.4047 26.9548C38.3196 22.3929 75.5973 9.51901 113.728 27.4065L107.359 39.9167L114.781 39.9246L122.752 24.5199L119.797 23.0079ZM71.5191 112.185L55.0952 82.6055L47.9585 82.6935L71.4734 126.209L94.9019 82.7122L87.7848 82.8267L71.5191 112.185Z" fill="#F5CB5C"/>
</g>
<defs>
<filter id="filter0_d" x="-2" y="0" width="148" height="146" filterUnits="userSpaceOnUse" color-interpolation-filters="sRGB">
<feFlood flood-opacity="0" result="BackgroundImageFix"/>
<feColorMatrix in="SourceAlpha" type="matrix" values="0 0 0 0 0 0 0 0 0 0 0 0 0 0 0 0 0 0 127 0"/>
<feOffset dy="4"/>
<feGaussianBlur stdDeviation="2"/>
<feColorMatrix type="matrix" values="0 0 0 0 0 0 0 0 0 0 0 0 0 0 0 0 0 0 0.25 0"/>
<feBlend mode="normal" in2="BackgroundImageFix" result="effect1_dropShadow"/>
<feBlend mode="normal" in="SourceGraphic" in2="effect1_dropShadow" result="shape"/>
</filter>
</defs>
</svg>
